<?xml version="1.0" standalone="no"?>
<!DOCTYPE svg PUBLIC "-//W3C//DTD SVG 20010904//EN"
 "http://www.w3.org/TR/2001/REC-SVG-20010904/DTD/svg10.dtd">
<svg version="1.0" xmlns="http://www.w3.org/2000/svg"
 width="488.000000pt" height="172.000000pt" viewBox="0 0 488.000000 172.000000"
 preserveAspectRatio="xMidYMid meet">

<g transform="translate(0.000000,172.000000) scale(0.100000,-0.100000)"
fill="#000000" stroke="none">
<path d="M178 1489 c-24 -14 -32 -50 -68 -319 -24 -181 -36 -241 -51 -262
l-20 -28 60 0 c69 0 106 11 115 36 5 12 86 559 86 582 0 7 -108 0 -122 -9z"/>
<path d="M383 1485 c-13 -9 -25 -34 -32 -66 -6 -29 -10 -53 -9 -54 9 -7 138
-13 142 -7 2 4 7 37 11 75 l7 67 -49 0 c-27 0 -58 -7 -70 -15z"/>
<path d="M1836 1468 c-3 -18 -22 -148 -42 -288 -20 -148 -41 -264 -50 -277
-14 -23 -14 -23 43 -23 96 0 109 13 127 123 l7 37 88 0 88 0 -8 -47 c-4 -27
-8 -63 -8 -82 l-1 -33 56 4 c30 3 62 12 70 20 23 22 41 154 26 179 -10 16 -9
24 7 47 11 15 22 50 26 77 3 28 9 65 12 84 l6 34 -63 -5 c-73 -5 -86 -17 -95
-87 -10 -74 -6 -71 -100 -71 -99 0 -92 -13 -70 135 19 135 19 191 -1 199 -9 3
-38 6 -64 6 -48 0 -49 -1 -54 -32z"/>
<path d="M335 1308 c-2 -7 -15 -96 -29 -197 -16 -113 -32 -194 -42 -209 l-16
-24 71 4 c48 2 76 9 87 20 11 11 25 75 45 209 16 107 29 197 29 202 0 13 -140
8 -145 -5z"/>
<path d="M572 1310 c-12 -5 -26 -20 -31 -32 -5 -13 -25 -140 -44 -282 -27
-190 -41 -264 -53 -277 -17 -18 -15 -19 48 -19 90 0 106 14 120 108 l10 72
134 0 c159 0 179 6 193 57 19 66 26 63 -149 63 -121 0 -160 3 -160 13 0 15 18
134 25 165 5 22 8 22 148 22 78 0 147 4 153 8 19 12 34 49 34 81 l0 31 -202
-1 c-112 0 -213 -4 -226 -9z"/>
<path d="M1074 1310 c-12 -5 -25 -13 -28 -18 -11 -18 -57 -356 -51 -378 2 -12
15 -24 27 -28 13 -3 114 -6 226 -6 l202 0 0 34 c0 19 -4 46 -10 60 l-10 26
-144 0 c-139 0 -144 1 -139 20 5 19 14 20 139 20 73 0 144 4 157 9 28 11 41
53 53 176 10 96 13 95 -215 94 -102 0 -196 -4 -207 -9z m274 -127 c-3 -15 -17
-18 -91 -21 -82 -3 -87 -2 -87 18 0 19 6 20 91 20 81 0 90 -2 87 -17z"/>
<path d="M2353 1310 c-33 -13 -39 -33 -62 -188 -28 -195 -28 -220 5 -232 14
-6 115 -10 225 -10 l199 0 0 48 c0 26 -5 53 -12 60 -8 8 -56 12 -151 12 -126
0 -138 2 -135 18 3 15 21 18 150 22 113 4 151 9 162 20 17 17 48 197 39 229
-3 10 -15 22 -26 25 -35 9 -370 6 -394 -4z m267 -130 c0 -19 -7 -20 -90 -20
-68 0 -90 3 -90 13 0 24 12 27 97 27 76 0 83 -2 83 -20z"/>
<path d="M2844 1310 c-12 -5 -25 -13 -28 -18 -11 -18 -57 -356 -51 -378 2 -12
15 -24 27 -28 13 -3 114 -6 226 -6 l202 0 0 34 c0 19 -4 46 -10 60 l-10 26
-144 0 c-139 0 -144 1 -139 20 5 19 14 20 139 20 73 0 144 4 157 9 28 11 41
53 53 176 10 96 13 95 -215 94 -102 0 -196 -4 -207 -9z m274 -127 c-3 -15 -17
-18 -91 -21 -82 -3 -87 -2 -87 18 0 19 6 20 91 20 81 0 90 -2 87 -17z"/>
<path d="M3342 1310 c-12 -5 -26 -20 -31 -32 -9 -24 -71 -467 -71 -504 0 -12
-10 -34 -22 -49 l-21 -28 66 5 c86 5 104 22 120 111 l11 66 148 3 c118 2 150
6 163 19 24 23 75 383 57 401 -16 16 -384 23 -420 8z m270 -115 c6 -6 -18
-170 -27 -185 -3 -5 -43 -10 -91 -10 -76 0 -85 2 -80 18 2 9 7 44 11 76 12
105 13 106 103 106 43 0 81 -2 84 -5z"/>
<path d="M3854 1310 c-12 -5 -25 -14 -29 -21 -9 -14 -55 -311 -55 -357 0 -26
5 -34 26 -42 14 -6 113 -10 219 -10 183 0 195 1 205 20 11 20 4 66 -13 88 -7
8 -49 12 -149 12 -127 0 -139 2 -136 18 3 15 21 18 158 23 85 3 156 7 157 7
15 15 47 213 38 241 -3 10 -16 22 -28 25 -34 9 -369 6 -393 -4z m266 -130 c0
-19 -7 -20 -89 -20 -84 0 -89 1 -84 20 5 18 14 20 89 20 77 0 84 -2 84 -20z"/>
<path d="M4352 1310 c-30 -13 -35 -30 -61 -220 -19 -132 -27 -169 -44 -187
l-20 -23 61 0 c114 0 122 10 143 185 6 55 16 108 21 118 8 15 25 17 148 17
127 0 142 2 160 20 11 11 20 31 20 44 0 13 3 31 6 40 5 14 -16 16 -202 15
-115 0 -219 -4 -232 -9z"/>
<path d="M1880 595 c0 -66 -5 -64 170 -68 103 -2 125 -5 125 -17 0 -13 -25
-15 -157 -18 -156 -2 -158 -3 -158 -25 0 -12 -3 -31 -6 -43 -3 -13 1 -28 11
-38 14 -13 39 -16 150 -16 87 0 136 -4 141 -11 13 -22 -24 -29 -167 -29 l-147
0 -6 -35 c-10 -52 0 -73 37 -80 18 -4 112 -5 209 -3 148 2 180 6 194 19 11 11
24 67 40 175 29 197 30 220 5 234 -12 6 -104 10 -230 10 l-211 0 0 -55z"/>
<path d="M2583 640 c-14 -6 -26 -23 -32 -47 -18 -63 -53 -332 -46 -353 8 -27
58 -32 257 -28 139 2 170 6 184 19 11 11 24 67 40 175 29 197 30 220 5 234
-24 12 -377 13 -408 0z m270 -117 c6 -11 -17 -165 -27 -181 -5 -8 -35 -12 -88
-12 l-81 0 7 76 c11 124 12 124 105 124 44 0 82 -3 84 -7z"/>
<path d="M2370 310 c-11 -11 -20 -31 -20 -44 0 -13 -3 -31 -6 -40 -5 -13 2
-16 39 -16 25 0 57 4 71 10 23 8 26 15 26 60 l0 50 -45 0 c-32 0 -51 -6 -65
-20z"/>
</g>
</svg>
